<?xml version="1.0" encoding="UTF-8" standalone="no"?>
<!DOCTYPE svg PUBLIC "-//W3C//DTD SVG 1.1//EN"
 "http://www.w3.org/Graphics/SVG/1.1/DTD/svg11.dtd">
<!-- Generated by graphviz version 2.40.1 (20161225.0304)
 -->
<!-- Title: snakemake_dag Pages: 1 -->
<svg width="785pt" height="364pt"
 viewBox="0.00 0.00 785.00 364.00" xmlns="http://www.w3.org/2000/svg" xmlns:xlink="http://www.w3.org/1999/xlink">
<g id="graph0" class="graph" transform="scale(1 1) rotate(0) translate(4 360)">
<title>snakemake_dag</title>
<polygon fill="#ffffff" stroke="transparent" points="-4,4 -4,-360 781,-360 781,4 -4,4"/>
<!-- 0 -->
<g id="node1" class="node">
<title>0</title>
<path fill="none" stroke="#d85656" stroke-width="2" d="M403,-36C403,-36 373,-36 373,-36 367,-36 361,-30 361,-24 361,-24 361,-12 361,-12 361,-6 367,0 373,0 373,0 403,0 403,0 409,0 415,-6 415,-12 415,-12 415,-24 415,-24 415,-30 409,-36 403,-36"/>
<text text-anchor="middle" x="388" y="-15" font-family="sans" font-size="10.00" fill="#000000">all</text>
</g>
<!-- 1 -->
<g id="node2" class="node">
<title>1</title>
<path fill="none" stroke="#d8a456" stroke-width="2" d="M123.5,-108C123.5,-108 68.5,-108 68.5,-108 62.5,-108 56.5,-102 56.5,-96 56.5,-96 56.5,-84 56.5,-84 56.5,-78 62.5,-72 68.5,-72 68.5,-72 123.5,-72 123.5,-72 129.5,-72 135.5,-78 135.5,-84 135.5,-84 135.5,-96 135.5,-96 135.5,-102 129.5,-108 123.5,-108"/>
<text text-anchor="middle" x="96" y="-87" font-family="sans" font-size="10.00" fill="#000000">bam_to_bed</text>
</g>
<!-- 1&#45;&gt;0 -->
<g id="edge1" class="edge">
<title>1&#45;&gt;0</title>
<path fill="none" stroke="#c0c0c0" stroke-width="2" d="M135.6977,-74.9137C138.829,-73.8781 141.9563,-72.8929 145,-72 216.8596,-50.9191 302.7758,-33.6352 350.7938,-24.667"/>
<polygon fill="#c0c0c0" stroke="#c0c0c0" stroke-width="2" points="351.5345,-28.0894 360.7312,-22.8289 350.2613,-21.2062 351.5345,-28.0894"/>
</g>
<!-- 2 -->
<g id="node3" class="node">
<title>2</title>
<path fill="none" stroke="#78d856" stroke-width="2" d="M138.5,-180C138.5,-180 81.5,-180 81.5,-180 75.5,-180 69.5,-174 69.5,-168 69.5,-168 69.5,-156 69.5,-156 69.5,-150 75.5,-144 81.5,-144 81.5,-144 138.5,-144 138.5,-144 144.5,-144 150.5,-150 150.5,-156 150.5,-156 150.5,-168 150.5,-168 150.5,-174 144.5,-180 138.5,-180"/>
<text text-anchor="middle" x="110" y="-159" font-family="sans" font-size="10.00" fill="#000000">sam_to_bam</text>
</g>
<!-- 2&#45;&gt;1 -->
<g id="edge7" class="edge">
<title>2&#45;&gt;1</title>
<path fill="none" stroke="#c0c0c0" stroke-width="2" d="M106.4672,-143.8314C104.9699,-136.131 103.1895,-126.9743 101.5255,-118.4166"/>
<polygon fill="#c0c0c0" stroke="#c0c0c0" stroke-width="2" points="104.9248,-117.5614 99.5804,-108.4133 98.0535,-118.8975 104.9248,-117.5614"/>
</g>
<!-- 13 -->
<g id="node14" class="node">
<title>13</title>
<path fill="none" stroke="#56d87b" stroke-width="2" d="M260,-108C260,-108 166,-108 166,-108 160,-108 154,-102 154,-96 154,-96 154,-84 154,-84 154,-78 160,-72 166,-72 166,-72 260,-72 260,-72 266,-72 272,-78 272,-84 272,-84 272,-96 272,-96 272,-102 266,-108 260,-108"/>
<text text-anchor="middle" x="213" y="-87" font-family="sans" font-size="10.00" fill="#000000">count_unique_reads</text>
</g>
<!-- 2&#45;&gt;13 -->
<g id="edge16" class="edge">
<title>2&#45;&gt;13</title>
<path fill="none" stroke="#c0c0c0" stroke-width="2" d="M135.9912,-143.8314C148.9216,-134.7927 164.7222,-123.7476 178.6383,-114.0198"/>
<polygon fill="#c0c0c0" stroke="#c0c0c0" stroke-width="2" points="180.8263,-116.7608 187.0171,-108.1628 176.8157,-111.0235 180.8263,-116.7608"/>
</g>
<!-- 3 -->
<g id="node4" class="node">
<title>3</title>
<path fill="none" stroke="#56a2d8" stroke-width="2" d="M125,-252C125,-252 95,-252 95,-252 89,-252 83,-246 83,-240 83,-240 83,-228 83,-228 83,-222 89,-216 95,-216 95,-216 125,-216 125,-216 131,-216 137,-222 137,-228 137,-228 137,-240 137,-240 137,-246 131,-252 125,-252"/>
<text text-anchor="middle" x="110" y="-231" font-family="sans" font-size="10.00" fill="#000000">align</text>
</g>
<!-- 3&#45;&gt;2 -->
<g id="edge8" class="edge">
<title>3&#45;&gt;2</title>
<path fill="none" stroke="#c0c0c0" stroke-width="2" d="M110,-215.8314C110,-208.131 110,-198.9743 110,-190.4166"/>
<polygon fill="#c0c0c0" stroke="#c0c0c0" stroke-width="2" points="113.5001,-190.4132 110,-180.4133 106.5001,-190.4133 113.5001,-190.4132"/>
</g>
<!-- 4 -->
<g id="node5" class="node">
<title>4</title>
<path fill="none" stroke="#56d8c9" stroke-width="2" d="M208,-356C208,-356 12,-356 12,-356 6,-356 0,-350 0,-344 0,-344 0,-300 0,-300 0,-294 6,-288 12,-288 12,-288 208,-288 208,-288 214,-288 220,-294 220,-300 220,-300 220,-344 220,-344 220,-350 214,-356 208,-356"/>
<text text-anchor="middle" x="110" y="-343" font-family="sans" font-size="10.00" fill="#000000">trim</text>
<text text-anchor="middle" x="110" y="-331" font-family="sans" font-size="10.00" fill="#000000">genome: hg38</text>
<text text-anchor="middle" x="110" y="-319" font-family="sans" font-size="10.00" fill="#000000">length: 50</text>
<text text-anchor="middle" x="110" y="-307" font-family="sans" font-size="10.00" fill="#000000">mode: single</text>
<text text-anchor="middle" x="110" y="-295" font-family="sans" font-size="10.00" fill="#000000">sample: H3K27me3_iPSC_SRA60_subset</text>
</g>
<!-- 4&#45;&gt;3 -->
<g id="edge9" class="edge">
<title>4&#45;&gt;3</title>
<path fill="none" stroke="#c0c0c0" stroke-width="2" d="M110,-287.9769C110,-279.5023 110,-270.5065 110,-262.3388"/>
<polygon fill="#c0c0c0" stroke="#c0c0c0" stroke-width="2" points="113.5001,-262.1919 110,-252.192 106.5001,-262.192 113.5001,-262.1919"/>
</g>
<!-- 5 -->
<g id="node6" class="node">
<title>5</title>
<path fill="none" stroke="#d8a456" stroke-width="2" d="M357.5,-108C357.5,-108 302.5,-108 302.5,-108 296.5,-108 290.5,-102 290.5,-96 290.5,-96 290.5,-84 290.5,-84 290.5,-78 296.5,-72 302.5,-72 302.5,-72 357.5,-72 357.5,-72 363.5,-72 369.5,-78 369.5,-84 369.5,-84 369.5,-96 369.5,-96 369.5,-102 363.5,-108 357.5,-108"/>
<text text-anchor="middle" x="330" y="-87" font-family="sans" font-size="10.00" fill="#000000">bam_to_bed</text>
</g>
<!-- 5&#45;&gt;0 -->
<g id="edge2" class="edge">
<title>5&#45;&gt;0</title>
<path fill="none" stroke="#c0c0c0" stroke-width="2" d="M344.6358,-71.8314C351.3161,-63.5386 359.3568,-53.557 366.6904,-44.4533"/>
<polygon fill="#c0c0c0" stroke="#c0c0c0" stroke-width="2" points="369.6194,-46.3965 373.1671,-36.4133 364.1681,-42.0052 369.6194,-46.3965"/>
</g>
<!-- 6 -->
<g id="node7" class="node">
<title>6</title>
<path fill="none" stroke="#78d856" stroke-width="2" d="M430.5,-180C430.5,-180 373.5,-180 373.5,-180 367.5,-180 361.5,-174 361.5,-168 361.5,-168 361.5,-156 361.5,-156 361.5,-150 367.5,-144 373.5,-144 373.5,-144 430.5,-144 430.5,-144 436.5,-144 442.5,-150 442.5,-156 442.5,-156 442.5,-168 442.5,-168 442.5,-174 436.5,-180 430.5,-180"/>
<text text-anchor="middle" x="402" y="-159" font-family="sans" font-size="10.00" fill="#000000">sam_to_bam</text>
</g>
<!-- 6&#45;&gt;5 -->
<g id="edge10" class="edge">
<title>6&#45;&gt;5</title>
<path fill="none" stroke="#c0c0c0" stroke-width="2" d="M383.8314,-143.8314C375.2848,-135.2848 364.9443,-124.9443 355.6198,-115.6198"/>
<polygon fill="#c0c0c0" stroke="#c0c0c0" stroke-width="2" points="357.9592,-113.0095 348.4133,-108.4133 353.0095,-117.9592 357.9592,-113.0095"/>
</g>
<!-- 14 -->
<g id="node15" class="node">
<title>14</title>
<path fill="none" stroke="#56d87b" stroke-width="2" d="M494,-108C494,-108 400,-108 400,-108 394,-108 388,-102 388,-96 388,-96 388,-84 388,-84 388,-78 394,-72 400,-72 400,-72 494,-72 494,-72 500,-72 506,-78 506,-84 506,-84 506,-96 506,-96 506,-102 500,-108 494,-108"/>
<text text-anchor="middle" x="447" y="-87" font-family="sans" font-size="10.00" fill="#000000">count_unique_reads</text>
</g>
<!-- 6&#45;&gt;14 -->
<g id="edge17" class="edge">
<title>6&#45;&gt;14</title>
<path fill="none" stroke="#c0c0c0" stroke-width="2" d="M413.3554,-143.8314C418.4326,-135.7079 424.5227,-125.9637 430.1176,-117.0118"/>
<polygon fill="#c0c0c0" stroke="#c0c0c0" stroke-width="2" points="433.1597,-118.7483 435.4917,-108.4133 427.2237,-115.0383 433.1597,-118.7483"/>
</g>
<!-- 7 -->
<g id="node8" class="node">
<title>7</title>
<path fill="none" stroke="#56a2d8" stroke-width="2" d="M417,-252C417,-252 387,-252 387,-252 381,-252 375,-246 375,-240 375,-240 375,-228 375,-228 375,-222 381,-216 387,-216 387,-216 417,-216 417,-216 423,-216 429,-222 429,-228 429,-228 429,-240 429,-240 429,-246 423,-252 417,-252"/>
<text text-anchor="middle" x="402" y="-231" font-family="sans" font-size="10.00" fill="#000000">align</text>
</g>
<!-- 7&#45;&gt;6 -->
<g id="edge11" class="edge">
<title>7&#45;&gt;6</title>
<path fill="none" stroke="#c0c0c0" stroke-width="2" d="M402,-215.8314C402,-208.131 402,-198.9743 402,-190.4166"/>
<polygon fill="#c0c0c0" stroke="#c0c0c0" stroke-width="2" points="405.5001,-190.4132 402,-180.4133 398.5001,-190.4133 405.5001,-190.4132"/>
</g>
<!-- 8 -->
<g id="node9" class="node">
<title>8</title>
<path fill="none" stroke="#56d8c9" stroke-width="2" d="M500,-356C500,-356 304,-356 304,-356 298,-356 292,-350 292,-344 292,-344 292,-300 292,-300 292,-294 298,-288 304,-288 304,-288 500,-288 500,-288 506,-288 512,-294 512,-300 512,-300 512,-344 512,-344 512,-350 506,-356 500,-356"/>
<text text-anchor="middle" x="402" y="-343" font-family="sans" font-size="10.00" fill="#000000">trim</text>
<text text-anchor="middle" x="402" y="-331" font-family="sans" font-size="10.00" fill="#000000">genome: hg38</text>
<text text-anchor="middle" x="402" y="-319" font-family="sans" font-size="10.00" fill="#000000">length: 100</text>
<text text-anchor="middle" x="402" y="-307" font-family="sans" font-size="10.00" fill="#000000">mode: single</text>
<text text-anchor="middle" x="402" y="-295" font-family="sans" font-size="10.00" fill="#000000">sample: H3K27me3_iPSC_SRA60_subset</text>
</g>
<!-- 8&#45;&gt;7 -->
<g id="edge12" class="edge">
<title>8&#45;&gt;7</title>
<path fill="none" stroke="#c0c0c0" stroke-width="2" d="M402,-287.9769C402,-279.5023 402,-270.5065 402,-262.3388"/>
<polygon fill="#c0c0c0" stroke="#c0c0c0" stroke-width="2" points="405.5001,-262.1919 402,-252.192 398.5001,-262.192 405.5001,-262.1919"/>
</g>
<!-- 9 -->
<g id="node10" class="node">
<title>9</title>
<path fill="none" stroke="#d8a456" stroke-width="2" d="M591.5,-108C591.5,-108 536.5,-108 536.5,-108 530.5,-108 524.5,-102 524.5,-96 524.5,-96 524.5,-84 524.5,-84 524.5,-78 530.5,-72 536.5,-72 536.5,-72 591.5,-72 591.5,-72 597.5,-72 603.5,-78 603.5,-84 603.5,-84 603.5,-96 603.5,-96 603.5,-102 597.5,-108 591.5,-108"/>
<text text-anchor="middle" x="564" y="-87" font-family="sans" font-size="10.00" fill="#000000">bam_to_bed</text>
</g>
<!-- 9&#45;&gt;0 -->
<g id="edge3" class="edge">
<title>9&#45;&gt;0</title>
<path fill="none" stroke="#c0c0c0" stroke-width="2" d="M524.0629,-73.6621C494.1755,-61.4354 453.6185,-44.8439 424.5747,-32.9624"/>
<polygon fill="#c0c0c0" stroke="#c0c0c0" stroke-width="2" points="425.7792,-29.6736 415.1985,-29.1267 423.1287,-36.1525 425.7792,-29.6736"/>
</g>
<!-- 10 -->
<g id="node11" class="node">
<title>10</title>
<path fill="none" stroke="#78d856" stroke-width="2" d="M695.5,-180C695.5,-180 638.5,-180 638.5,-180 632.5,-180 626.5,-174 626.5,-168 626.5,-168 626.5,-156 626.5,-156 626.5,-150 632.5,-144 638.5,-144 638.5,-144 695.5,-144 695.5,-144 701.5,-144 707.5,-150 707.5,-156 707.5,-156 707.5,-168 707.5,-168 707.5,-174 701.5,-180 695.5,-180"/>
<text text-anchor="middle" x="667" y="-159" font-family="sans" font-size="10.00" fill="#000000">sam_to_bam</text>
</g>
<!-- 10&#45;&gt;9 -->
<g id="edge13" class="edge">
<title>10&#45;&gt;9</title>
<path fill="none" stroke="#c0c0c0" stroke-width="2" d="M641.0088,-143.8314C628.0784,-134.7927 612.2778,-123.7476 598.3617,-114.0198"/>
<polygon fill="#c0c0c0" stroke="#c0c0c0" stroke-width="2" points="600.1843,-111.0235 589.9829,-108.1628 596.1737,-116.7608 600.1843,-111.0235"/>
</g>
<!-- 15 -->
<g id="node16" class="node">
<title>15</title>
<path fill="none" stroke="#56d87b" stroke-width="2" d="M728,-108C728,-108 634,-108 634,-108 628,-108 622,-102 622,-96 622,-96 622,-84 622,-84 622,-78 628,-72 634,-72 634,-72 728,-72 728,-72 734,-72 740,-78 740,-84 740,-84 740,-96 740,-96 740,-102 734,-108 728,-108"/>
<text text-anchor="middle" x="681" y="-87" font-family="sans" font-size="10.00" fill="#000000">count_unique_reads</text>
</g>
<!-- 10&#45;&gt;15 -->
<g id="edge18" class="edge">
<title>10&#45;&gt;15</title>
<path fill="none" stroke="#c0c0c0" stroke-width="2" d="M670.5328,-143.8314C672.0301,-136.131 673.8105,-126.9743 675.4745,-118.4166"/>
<polygon fill="#c0c0c0" stroke="#c0c0c0" stroke-width="2" points="678.9465,-118.8975 677.4196,-108.4133 672.0752,-117.5614 678.9465,-118.8975"/>
</g>
<!-- 11 -->
<g id="node12" class="node">
<title>11</title>
<path fill="none" stroke="#56a2d8" stroke-width="2" d="M682,-252C682,-252 652,-252 652,-252 646,-252 640,-246 640,-240 640,-240 640,-228 640,-228 640,-222 646,-216 652,-216 652,-216 682,-216 682,-216 688,-216 694,-222 694,-228 694,-228 694,-240 694,-240 694,-246 688,-252 682,-252"/>
<text text-anchor="middle" x="667" y="-231" font-family="sans" font-size="10.00" fill="#000000">align</text>
</g>
<!-- 11&#45;&gt;10 -->
<g id="edge14" class="edge">
<title>11&#45;&gt;10</title>
<path fill="none" stroke="#c0c0c0" stroke-width="2" d="M667,-215.8314C667,-208.131 667,-198.9743 667,-190.4166"/>
<polygon fill="#c0c0c0" stroke="#c0c0c0" stroke-width="2" points="670.5001,-190.4132 667,-180.4133 663.5001,-190.4133 670.5001,-190.4132"/>
</g>
<!-- 12 -->
<g id="node13" class="node">
<title>12</title>
<path fill="none" stroke="#56d8c9" stroke-width="2" d="M765,-356C765,-356 569,-356 569,-356 563,-356 557,-350 557,-344 557,-344 557,-300 557,-300 557,-294 563,-288 569,-288 569,-288 765,-288 765,-288 771,-288 777,-294 777,-300 777,-300 777,-344 777,-344 777,-350 771,-356 765,-356"/>
<text text-anchor="middle" x="667" y="-343" font-family="sans" font-size="10.00" fill="#000000">trim</text>
<text text-anchor="middle" x="667" y="-331" font-family="sans" font-size="10.00" fill="#000000">genome: hg38</text>
<text text-anchor="middle" x="667" y="-319" font-family="sans" font-size="10.00" fill="#000000">length: 150</text>
<text text-anchor="middle" x="667" y="-307" font-family="sans" font-size="10.00" fill="#000000">mode: single</text>
<text text-anchor="middle" x="667" y="-295" font-family="sans" font-size="10.00" fill="#000000">sample: H3K27me3_iPSC_SRA60_subset</text>
</g>
<!-- 12&#45;&gt;11 -->
<g id="edge15" class="edge">
<title>12&#45;&gt;11</title>
<path fill="none" stroke="#c0c0c0" stroke-width="2" d="M667,-287.9769C667,-279.5023 667,-270.5065 667,-262.3388"/>
<polygon fill="#c0c0c0" stroke="#c0c0c0" stroke-width="2" points="670.5001,-262.1919 667,-252.192 663.5001,-262.192 670.5001,-262.1919"/>
</g>
<!-- 13&#45;&gt;0 -->
<g id="edge4" class="edge">
<title>13&#45;&gt;0</title>
<path fill="none" stroke="#c0c0c0" stroke-width="2" d="M257.1599,-71.8314C286.3251,-59.8319 324.0849,-44.2965 351.5385,-33.0013"/>
<polygon fill="#c0c0c0" stroke="#c0c0c0" stroke-width="2" points="352.8721,-36.2373 360.7883,-29.1957 350.2087,-29.7638 352.8721,-36.2373"/>
</g>
<!-- 14&#45;&gt;0 -->
<g id="edge5" class="edge">
<title>14&#45;&gt;0</title>
<path fill="none" stroke="#c0c0c0" stroke-width="2" d="M432.1118,-71.8314C425.247,-63.454 416.9699,-53.3531 409.4489,-44.1749"/>
<polygon fill="#c0c0c0" stroke="#c0c0c0" stroke-width="2" points="412.1341,-41.9297 403.0886,-36.4133 406.7197,-46.3665 412.1341,-41.9297"/>
</g>
<!-- 15&#45;&gt;0 -->
<g id="edge6" class="edge">
<title>15&#45;&gt;0</title>
<path fill="none" stroke="#c0c0c0" stroke-width="2" d="M621.9235,-74.5115C618.5678,-73.6558 615.2421,-72.8136 612,-72 546.3073,-55.5146 469.5285,-37.2148 425.0627,-26.7116"/>
<polygon fill="#c0c0c0" stroke="#c0c0c0" stroke-width="2" points="425.8169,-23.2935 415.2804,-24.4036 424.2095,-30.1065 425.8169,-23.2935"/>
</g>
</g>
</svg>
