<?xml version="1.0" encoding="UTF-8" standalone="no"?>
<!DOCTYPE svg PUBLIC "-//W3C//DTD SVG 1.1//EN"
 "http://www.w3.org/Graphics/SVG/1.1/DTD/svg11.dtd">
<!-- Generated by graphviz version 2.40.1 (20161225.0304)
 -->
<!-- Title: snakemake_dag Pages: 1 -->
<svg width="309pt" height="260pt"
 viewBox="0.00 0.00 309.00 260.00" xmlns="http://www.w3.org/2000/svg" xmlns:xlink="http://www.w3.org/1999/xlink">
<g id="graph0" class="graph" transform="scale(1 1) rotate(0) translate(4 256)">
<title>snakemake_dag</title>
<polygon fill="#ffffff" stroke="transparent" points="-4,4 -4,-256 305,-256 305,4 -4,4"/>
<!-- 0 -->
<g id="node1" class="node">
<title>0</title>
<path fill="none" stroke="#56d88a" stroke-width="2" d="M165,-36C165,-36 135,-36 135,-36 129,-36 123,-30 123,-24 123,-24 123,-12 123,-12 123,-6 129,0 135,0 135,0 165,0 165,0 171,0 177,-6 177,-12 177,-12 177,-24 177,-24 177,-30 171,-36 165,-36"/>
<text text-anchor="middle" x="150" y="-15" font-family="sans" font-size="10.00" fill="#000000">all</text>
</g>
<!-- 1 -->
<g id="node2" class="node">
<title>1</title>
<path fill="none" stroke="#d8bc56" stroke-width="2" d="M112.5,-108C112.5,-108 45.5,-108 45.5,-108 39.5,-108 33.5,-102 33.5,-96 33.5,-96 33.5,-84 33.5,-84 33.5,-78 39.5,-72 45.5,-72 45.5,-72 112.5,-72 112.5,-72 118.5,-72 124.5,-78 124.5,-84 124.5,-84 124.5,-96 124.5,-96 124.5,-102 118.5,-108 112.5,-108"/>
<text text-anchor="middle" x="79" y="-87" font-family="sans" font-size="10.00" fill="#000000">variant_calling</text>
</g>
<!-- 1&#45;&gt;0 -->
<g id="edge1" class="edge">
<title>1&#45;&gt;0</title>
<path fill="none" stroke="#c0c0c0" stroke-width="2" d="M96.9163,-71.8314C105.3442,-63.2848 115.541,-52.9443 124.736,-43.6198"/>
<polygon fill="#c0c0c0" stroke="#c0c0c0" stroke-width="2" points="127.3131,-45.9912 131.8425,-36.4133 122.3289,-41.0761 127.3131,-45.9912"/>
</g>
<!-- 2 -->
<g id="node3" class="node">
<title>2</title>
<path fill="none" stroke="#d85656" stroke-width="2" d="M94,-180C94,-180 64,-180 64,-180 58,-180 52,-174 52,-168 52,-168 52,-156 52,-156 52,-150 58,-144 64,-144 64,-144 94,-144 94,-144 100,-144 106,-150 106,-156 106,-156 106,-168 106,-168 106,-174 100,-180 94,-180"/>
<text text-anchor="middle" x="79" y="-159" font-family="sans" font-size="10.00" fill="#000000">sort</text>
</g>
<!-- 2&#45;&gt;1 -->
<g id="edge3" class="edge">
<title>2&#45;&gt;1</title>
<path fill="none" stroke="#c0c0c0" stroke-width="2" d="M79,-143.8314C79,-136.131 79,-126.9743 79,-118.4166"/>
<polygon fill="#c0c0c0" stroke="#c0c0c0" stroke-width="2" points="82.5001,-118.4132 79,-108.4133 75.5001,-118.4133 82.5001,-118.4132"/>
</g>
<!-- 3 -->
<g id="node4" class="node">
<title>3</title>
<path fill="none" stroke="#56c1d8" stroke-width="2" d="M146,-252C146,-252 12,-252 12,-252 6,-252 0,-246 0,-240 0,-240 0,-228 0,-228 0,-222 6,-216 12,-216 12,-216 146,-216 146,-216 152,-216 158,-222 158,-228 158,-228 158,-240 158,-240 158,-246 152,-252 146,-252"/>
<text text-anchor="middle" x="79" y="-237" font-family="sans" font-size="10.00" fill="#000000">align</text>
<text text-anchor="middle" x="79" y="-225" font-family="sans" font-size="10.00" fill="#000000">sample: subset_SRR099957</text>
</g>
<!-- 3&#45;&gt;2 -->
<g id="edge4" class="edge">
<title>3&#45;&gt;2</title>
<path fill="none" stroke="#c0c0c0" stroke-width="2" d="M79,-215.8314C79,-208.131 79,-198.9743 79,-190.4166"/>
<polygon fill="#c0c0c0" stroke="#c0c0c0" stroke-width="2" points="82.5001,-190.4132 79,-180.4133 75.5001,-190.4133 82.5001,-190.4132"/>
</g>
<!-- 4 -->
<g id="node5" class="node">
<title>4</title>
<path fill="none" stroke="#88d856" stroke-width="2" d="M289,-108C289,-108 155,-108 155,-108 149,-108 143,-102 143,-96 143,-96 143,-84 143,-84 143,-78 149,-72 155,-72 155,-72 289,-72 289,-72 295,-72 301,-78 301,-84 301,-84 301,-96 301,-96 301,-102 295,-108 289,-108"/>
<text text-anchor="middle" x="222" y="-93" font-family="sans" font-size="10.00" fill="#000000">fastqc</text>
<text text-anchor="middle" x="222" y="-81" font-family="sans" font-size="10.00" fill="#000000">sample: subset_SRR099957</text>
</g>
<!-- 4&#45;&gt;0 -->
<g id="edge2" class="edge">
<title>4&#45;&gt;0</title>
<path fill="none" stroke="#c0c0c0" stroke-width="2" d="M203.8314,-71.8314C195.2848,-63.2848 184.9443,-52.9443 175.6198,-43.6198"/>
<polygon fill="#c0c0c0" stroke="#c0c0c0" stroke-width="2" points="177.9592,-41.0095 168.4133,-36.4133 173.0095,-45.9592 177.9592,-41.0095"/>
</g>
</g>
</svg>
